- 
http://www.Speed.Cd
 
http://www.Speed.Cd       the fast  and The Hottest Private Tracker on the net

Please Seed back to make the speed Faster!!
 ............ NFO .............
-[IMG]http://i.imgur.com/VQGMPNi.jpg[/IMG]

Source: DVDR L-S
 
http://www.imdb.com/title/tt2027154/

School is over and summer has begun in the dead-end seaside town of Rainmouth. While Jamie's friends seem to be happy working in the local pie factory by day and looking for sex by night, Jamie is bored out of his mind, running his pot-head mother's B&B.

General
Complete name                            : Love Bite 2012 DVDRip x264 AAC-OFFLiNE.mp4
Format                                   : MPEG-4
Format profile                           : Base Media
Codec ID                                 : isom
File size                                : 1.40 GiB
Duration                                 : 1h 27mn
Overall bit rate mode                    : Variable
Overall bit rate                         : 2 307 Kbps
Encoded date                             : UTC 2013-03-02 10:27:55
Tagged date                              : UTC 2013-03-02 10:27:55

Video
ID                                       : 1
Format                                   : AVC
Format/Info                              : Advanced Video Codec
Format profile                           : High@L4.1
Format settings, CABAC                   : Yes
Format settings, ReFrames                : 3 frames
Codec ID                                 : avc1
Codec ID/Info                            : Advanced Video Coding
Duration                                 : 1h 27mn
Bit rate mode                            : Variable
Bit rate                                 : 1 967 Kbps
Maximum bit rate                         : 40.0 Mbps
Width                                    : 720 pixels
Height                                   : 304 pixels
Display aspect ratio                     : 2.35:1
Frame rate mode                          : Constant
Frame rate                               : 25.000 fps
Color space                              : YUV
Chroma subsampling                       : 4:2:0
Bit depth                                : 8 bits
Scan type                                : Progressive
Bits/(Pixel*Frame)                       : 0.359
Stream size                              : 1.20 GiB (85%)
Writing library                          : x264 core 129 r2245 bc13772

Audio
ID                                       : 2
Format                                   : AAC
Format/Info                              : Advanced Audio Codec
Format profile                           : LC
Codec ID                                 : 40
Duration                                 : 1h 27mn
Bit rate mode                            : Variable
Bit rate                                 : 336 Kbps
Maximum bit rate                         : 382 Kbps
Channel(s)                               : 6 channels
Channel positions                        : Front: L C R, Side: L R, LFE
Sampling rate                            : 48.0 KHz
Compression mode                         : Lossy
Stream size                              : 209 MiB (15%)
Language                                 : English
Encoded date                             : UTC 2013-03-02 08:57:16
Tagged date                              : UTC 2013-03-02 10:29:25

[img]http://i.imgur.com/ThV9MV5.png[/img]
[img]http://i.imgur.com/nl4Jptj.png[/img]
[img]http://i.imgur.com/uP6iYpC.png[/img]
[img]http://i.imgur.com/8dMeXYs.png[/img]
[img]http://i.imgur.com/sNvky6R.png[/img]
[img]http://i.imgur.com/4rOoN28.png[/img]

Greets: To Our Friends